<?xml version="1.0" encoding="UTF-8" standalone="no"?>
<svg width="68px" height="68px" viewBox="0 0 68 68" version="1.1" xmlns="http://www.w3.org/2000/svg" xmlns:xlink="http://www.w3.org/1999/xlink">
    <!-- Generator: Sketch 3.6.1 (26313) - http://www.bohemiancoding.com/sketch -->
    <title>coin-icon</title>
    <desc>Created with Sketch.</desc>
    <defs></defs>
    <g id="Home-Page" stroke="none" stroke-width="1" fill="none" fill-rule="evenodd">
        <g id="Desktop" transform="translate(-376.000000, -2614.000000)" fill="#D8D8D8">
            <g id="coin-icon" transform="translate(376.000000, 2614.000000)">
                <g id="Group">
                    <g id="Shape">
                        <path d="M41.5431919,41.5867527 C41.5431919,38.7614624 39.0326869,36.3982796 35.7048081,35.8542796 L35.7048081,47.3163011 C39.0326869,46.7723011 41.5431919,44.412043 41.5431919,41.5867527 L41.5431919,41.5867527 Z"></path>
                        <path d="M26.9472323,26.9630968 C26.9472323,29.7883871 29.4577374,32.1515699 32.7856162,32.6955699 L32.7856162,21.2306237 C29.4606566,21.7746237 26.9472323,24.1378065 26.9472323,26.9630968 L26.9472323,26.9630968 Z"></path>
                        <path d="M34.2452121,0.640516129 C15.7346162,0.640516129 0.674505051,15.7292043 0.674505051,34.2749247 C0.674505051,52.8206452 15.7346162,67.9093333 34.2452121,67.9093333 C52.7558081,67.9093333 67.8159192,52.8206452 67.8159192,34.2749247 C67.8159192,15.7292043 52.7587273,0.640516129 34.2452121,0.640516129 L34.2452121,0.640516129 Z M44.4623838,41.5867527 C44.4623838,45.9972473 40.6440808,49.6209892 35.7048081,50.2351828 L35.7048081,51.8233118 C35.7048081,52.6305376 35.0509091,53.2856774 34.2452121,53.2856774 C33.4395152,53.2856774 32.7856162,52.6305376 32.7856162,51.8233118 L32.7856162,50.2322581 C27.8463434,49.6180645 24.0280404,45.9943226 24.0280404,41.583828 C24.0280404,40.7766022 24.6819394,40.1214624 25.4876364,40.1214624 C26.2933333,40.1214624 26.9472323,40.7766022 26.9472323,41.583828 C26.9472323,44.4091183 29.4577374,46.7723011 32.7856162,47.3163011 L32.7856162,35.6086022 C27.8463434,34.9944086 24.0280404,31.3706667 24.0280404,26.960172 C24.0280404,22.5496774 27.8463434,18.9259355 32.7856162,18.3117419 L32.7856162,16.7265376 C32.7856162,15.9193118 33.4395152,15.264172 34.2452121,15.264172 C35.0509091,15.264172 35.7048081,15.9193118 35.7048081,16.7265376 L35.7048081,18.3146667 C40.6440808,18.9288602 44.4623838,22.5526022 44.4623838,26.9630968 C44.4623838,27.7703226 43.8084848,28.4254624 43.0027879,28.4254624 C42.1970909,28.4254624 41.5431919,27.7703226 41.5431919,26.9630968 C41.5431919,24.1378065 39.0326869,21.7746237 35.7048081,21.2306237 L35.7048081,32.9383226 C40.6440808,33.5525161 44.4623838,37.1762581 44.4623838,41.5867527 L44.4623838,41.5867527 Z"></path>
                    </g>
                </g>
            </g>
        </g>
    </g>
</svg>