<?xml version="1.0" encoding="UTF-8" standalone="no"?>
<svg width="90px" height="66px" viewBox="0 0 90 66" version="1.1" xmlns="http://www.w3.org/2000/svg" xmlns:xlink="http://www.w3.org/1999/xlink">
    <!-- Generator: Sketch 3.6.1 (26313) - http://www.bohemiancoding.com/sketch -->
    <title>controller-icon</title>
    <desc>Created with Sketch.</desc>
    <defs></defs>
    <g id="Home-Page" stroke="none" stroke-width="1" fill="none" fill-rule="evenodd">
        <g id="Desktop" transform="translate(-1144.000000, -2615.000000)" fill="#D8D8D8">
            <g id="controller-icon" transform="translate(1144.000000, 2615.000000)">
                <g id="Group">
                    <path d="M89.4,35.4 C88.9,28.6 87.5,22.7 85.4,17.4 C85.1,16.7 84.8,15.9 84.5,15 C83.1,11.3 80.5,7.1 77.7,4.4 C75.1,2 71.9,0.8 68,0.8 C64.7,0.8 61.4,0.6 58.1,1.4 C55.3,2.1 52.7,2.7 50.2,2.9 C46.3,3.3 44,3.3 39.9,2.9 C37.4,2.8 34.8,2.1 32.1,1.4 C28.8,0.6 25.5,0.8 22.2,0.8 C18.3,0.8 15.1,2 12.5,4.4 C9.6,7 7.1,11.3 5.7,15 L4.8,17.4 C2.6,22.8 1.3,28.7 0.8,35.4 C0.5,38.8 1.92068583e-14,50.2 3.9,56.5 C5.8,60.6 8.6,63.5 11.6,64.6 C12.7,65 13.7,65.2 14.8,65.2 C17.3,65.2 19.6,64 21.2,61.9 C22.9,59.7 24.5,57.3 26.4,54.2 C28.4,51.6 30.5,48.9 32.6,47.2 C36.3,48.3 40.6,48.8 45.1,48.8 C49.6,48.8 53.9,48.2 57.6,47.2 C59.8,48.9 61.9,51.7 63.8,54.2 C65.7,57.3 67.4,59.7 69,61.9 C70.6,64 72.9,65.2 75.4,65.2 C76.5,65.2 77.5,65 78.6,64.6 C81.7,63.5 84.4,60.6 86.3,56.5 C90.2,50.2 89.7,38.8 89.4,35.4 L89.4,35.4 Z M82.8,54.5 C82.8,54.6 82.7,54.7 82.7,54.7 C81.2,57.9 79.2,60.1 77.1,60.9 C76.5,61.1 75.9,61.2 75.3,61.2 C74,61.2 72.9,60.6 72,59.5 C70.4,57.4 68.8,55 67,52 C67,51.9 66.9,51.9 66.9,51.8 C64.5,48.6 61.9,45.3 59,43.3 C58.7,43.1 58.3,42.9 57.9,42.9 C57.7,42.9 57.5,42.9 57.3,43 C53.8,44.1 49.5,44.7 45.1,44.7 C40.6,44.7 36.4,44.1 32.9,43 C32.3,42.8 31.7,42.9 31.2,43.3 C28.3,45.3 25.7,48.6 23.3,51.8 C23,51.9 23,52 23,52 C21.2,55 19.6,57.4 18,59.5 C16.7,61.1 14.9,61.6 12.9,60.9 C10.8,60.1 8.8,57.9 7.3,54.7 C7.3,54.6 7.2,54.5 7.2,54.5 C4.5,50.3 4.1,42 4.6,35.7 C5.1,29.3 6.3,23.8 8.4,18.9 C8.7,18.1 9,17.3 9.4,16.4 C10.6,13.1 13.1,9.3 15.2,7.4 C17.1,5.7 19.3,4.8 22.2,4.8 C25,4.8 28.1,4.6 31.1,5.3 C33.9,6 36.8,6.7 39.6,6.9 C43.8,7.3 46.5,7.3 50.5,6.9 C53.3,6.7 56.2,6 59.1,5.3 C62.1,4.6 65.2,4.8 68,4.8 C70.9,4.8 73.1,5.6 75,7.4 C77.2,9.4 79.6,13.1 80.8,16.4 C81.1,17.3 81.4,18.1 81.8,18.9 C83.8,23.9 85.1,29.4 85.6,35.7 C85.9,42 85.5,50.3 82.8,54.5 L82.8,54.5 Z" id="Shape"></path>
                    <circle id="Oval" cx="66.5" cy="11.8" r="2.2"></circle>
                    <circle id="Oval" cx="68.7" cy="23.7" r="2.2"></circle>
                    <circle id="Oval" cx="73" cy="17" r="2.2"></circle>
                    <circle id="Oval" cx="62.2" cy="18.6" r="2.2"></circle>
                    <path d="M29.5,17.3 C29.5,13.8 26.7,11 23.2,11 C19.7,11 16.9,13.8 16.9,17.3 C16.9,20.8 19.7,23.6 23.2,23.6 C26.7,23.6 29.5,20.7 29.5,17.3 L29.5,17.3 Z M23.2,19.6 C21.9,19.6 20.9,18.6 20.9,17.3 C20.9,16 21.9,15 23.2,15 C24.5,15 25.5,16 25.5,17.3 C25.5,18.5 24.5,19.6 23.2,19.6 L23.2,19.6 Z M54.6,26.1 C51.1,26.1 48.3,28.9 48.3,32.4 C48.3,35.9 51.1,38.7 54.6,38.7 C58.1,38.7 60.9,35.9 60.9,32.4 C60.9,28.9 58,26.1 54.6,26.1 L54.6,26.1 Z M54.6,34.7 C53.3,34.7 52.3,33.7 52.3,32.4 C52.3,31.1 53.3,30.1 54.6,30.1 C55.9,30.1 56.9,31.1 56.9,32.4 C56.9,33.7 55.8,34.7 54.6,34.7 L54.6,34.7 Z M38,30.4 L35.6,30.4 L35.6,28.1 C35.6,27 34.7,26.1 33.6,26.1 C32.5,26.1 31.6,27 31.6,28.1 L31.6,30.4 L29.2,30.4 C28.1,30.4 27.2,31.3 27.2,32.4 C27.2,33.5 28.1,34.4 29.2,34.4 L31.6,34.4 L31.6,36.6 C31.6,37.7 32.5,38.6 33.6,38.6 C34.7,38.6 35.6,37.7 35.6,36.6 L35.6,34.4 L38,34.4 C39.1,34.4 40,33.5 40,32.4 C40,31.3 39.1,30.4 38,30.4 L38,30.4 Z" id="Shape"></path>
                </g>
            </g>
        </g>
    </g>
</svg>