<?xml version="1.0" encoding="UTF-8" standalone="no"?>
<svg width="68px" height="87px" viewBox="0 0 68 87" version="1.1" xmlns="http://www.w3.org/2000/svg" xmlns:xlink="http://www.w3.org/1999/xlink">
    <!-- Generator: Sketch 3.6.1 (26313) - http://www.bohemiancoding.com/sketch -->
    <title>lock-icon</title>
    <desc>Created with Sketch.</desc>
    <defs></defs>
    <g id="Home-Page" stroke="none" stroke-width="1" fill="none" fill-rule="evenodd">
        <g id="Desktop" transform="translate(-767.000000, -2595.000000)" fill="#D8D8D8">
            <g id="lock-icon" transform="translate(767.000000, 2595.000000)">
                <g id="Group">
                    <path d="M0.735,39.917 L0.735,87 L68,87 L68,39.917 L0.735,39.917 L0.735,39.917 Z M30.262,74.753 L19.721,64.214 L24.117,59.819 L30.262,65.963 L45.24,50.983 L49.633,55.378 L30.262,74.753 L30.262,74.753 Z" id="Shape"></path>
                    <path d="M20.913,24.194 C20.952,21.378 20.909,10.741 34.366,10.741 C47.823,10.741 47.78,21.422 47.818,24.194 L47.818,34.284 L57.911,34.284 L57.911,24.192 C57.911,24.192 57.908,0.65 34.368,0.65 C10.829,0.65 10.824,24.192 10.824,24.192 L10.824,34.285 L20.913,34.285 L20.913,24.194 L20.913,24.194 Z" id="Shape"></path>
                </g>
            </g>
        </g>
    </g>
</svg>